<svg xmlns="http://www.w3.org/2000/svg" xmlns:xlink="http://www.w3.org/1999/xlink" fill="none" version="1.1" width="38" height="38" viewBox="0 0 38 38"><defs><clipPath id="master_svg0_1_46"><rect x="0" y="0" width="38" height="38" rx="0"/></clipPath></defs><g><g clip-path="url(#master_svg0_1_46)"><g><path d="M19.0112388671875,2.3787841796875C9.834058867187501,2.3787841796875,2.3973388671875,9.815504179687501,2.3973388671875,18.9926841796875C2.3973388671875,28.1697841796875,9.834058867187501,35.6064841796875,19.0112388671875,35.6064841796875C28.1883388671875,35.6064841796875,35.6250388671875,28.1660841796875,35.6250388671875,18.9926841796875C35.6250388671875,9.8192141796875,28.1883388671875,2.3787841796875,19.0112388671875,2.3787841796875ZM20.6662388671875,27.1752841796875L12.4020388671875,27.1752841796875C11.5819088671875,27.1752841796875,10.9176488671875,26.5109841796875,10.9176488671875,25.6908841796875C10.9176488671875,24.8707841796875,11.5819088671875,24.2064841796875,12.4020388671875,24.2064841796875L20.6662388671875,24.2064841796875C22.8297388671875,24.2064841796875,24.5850388671875,22.4474841796875,24.5850388671875,20.2877841796875C24.5850388671875,18.127984179687502,22.8297388671875,16.3652841796875,20.6662388671875,16.3652841796875L15.5080388671875,16.3652841796875L17.456338867187497,18.3135841796875C18.035238867187502,18.8924841796875,18.035238867187502,19.8312841796875,17.456338867187497,20.4139841796875C16.8774388671875,20.9928841796875,15.9385388671875,20.9928841796875,15.3559388671875,20.4139841796875L10.8768288671875,15.9310841796875C10.2979188671875,15.3521841796875,10.2979188671875,14.4133841796875,10.8768288671875,13.8307841796875L15.3596388671875,9.3479241796875C15.9385388671875,8.769014179687499,16.8774388671875,8.769014179687499,17.4600388671875,9.3479241796875C18.0426388671875,9.9268341796875,18.0389388671875,10.8656941796875,17.4600388671875,11.4483141796875L15.5080388671875,13.3965841796875L20.6662388671875,13.3965841796875C24.4662388671875,13.3965841796875,27.5537388671875,16.4877841796875,27.5537388671875,20.2840841796875C27.5575388671875,24.0840841796875,24.4662388671875,27.1752841796875,20.6662388671875,27.1752841796875Z" fill="#3388FF" fill-opacity="1"/></g></g></g></svg>