<svg xmlns="http://www.w3.org/2000/svg" xmlns:xlink="http://www.w3.org/1999/xlink" fill="none" version="1.1" width="204" height="204" viewBox="0 0 204 204"><defs><linearGradient x1="0.5809999704360962" y1="0.9999999403953552" x2="0.3089999854564667" y2="0.26499998569488525" id="master_svg0_3_0618"><stop offset="0%" stop-color="#FDA624" stop-opacity="1"/><stop offset="100%" stop-color="#FFD179" stop-opacity="1"/></linearGradient><linearGradient x1="0.2670275866985321" y1="0" x2="0.7378742694854736" y2="0.8740964531898499" id="master_svg1_3_2046"><stop offset="0%" stop-color="#FFC508" stop-opacity="1"/><stop offset="100%" stop-color="#FFAA00" stop-opacity="1"/></linearGradient><linearGradient x1="0.5809999704360962" y1="0.9999999403953552" x2="0.3089999854564667" y2="0.26499998569488525" id="master_svg2_3_0618"><stop offset="0%" stop-color="#FDA624" stop-opacity="1"/><stop offset="100%" stop-color="#FFD179" stop-opacity="1"/></linearGradient><linearGradient x1="0.5809999704360962" y1="0.9999999403953552" x2="0.3089999854564667" y2="0.26499998569488525" id="master_svg3_3_0609"><stop offset="0%" stop-color="#4CBF00" stop-opacity="1"/><stop offset="100%" stop-color="#7FE18F" stop-opacity="1"/></linearGradient><filter id="master_svg4_9_6625" filterUnits="objectBoundingBox" color-interpolation-filters="sRGB" x="-12" y="-9" width="138.10858154296875" height="118.3966293334961"><feFlood flood-opacity="0" result="BackgroundImageFix"/><feColorMatrix in="SourceAlpha" type="matrix" values="0 0 0 0 0 0 0 0 0 0 0 0 0 0 0 0 0 0 127 0"/><feOffset dy="3" dx="0"/><feGaussianBlur stdDeviation="3"/><feColorMatrix type="matrix" values="0 0 0 0 0 0 0 0 0 0 0 0 0 0 0 0 0 0 0.16099999845027924 0"/><feBlend mode="normal" in2="BackgroundImageFix" result="effect1_dropShadow"/><feBlend mode="normal" in="SourceGraphic" in2="effect1_dropShadow" result="shape"/></filter><linearGradient x1="0.20100001990795135" y1="0.15699999034404755" x2="0.5000000596046448" y2="1" id="master_svg5_3_2663"><stop offset="0%" stop-color="#FFA870" stop-opacity="1"/><stop offset="100%" stop-color="#FF0000" stop-opacity="1"/></linearGradient></defs><g><g transform="matrix(-1,0,0,1,408.0001220703125,0)"><g><path d="M306.00010681152344,7.07077e-15C285.82640681152344,-1.41415e-14,266.10580681152345,5.98219,249.33200681152343,17.1901C232.55820681152343,28.398,219.48460681152343,44.3282,211.76443681152344,62.9663C204.04429991152344,81.6043,202.02436681152344,102.113,205.96005681152343,121.899C209.89574681152345,141.685,219.61030681152343,159.86,233.87520681152344,174.125C248.14020681152343,188.39,266.31490681152343,198.104,286.10090681152343,202.04C305.88710681152344,205.976,326.39610681152345,203.956,345.03410681152343,196.236C363.67210681152346,188.516,379.6021068115234,175.442,390.81010681152344,158.668C402.01810681152347,141.894,408.00010681152344,122.174,408.00010681152344,102C407.95910681152344,74.9604,397.2001068115234,49.0398,378.0801068115235,29.9199C358.9601068115235,10.7999,333.0401068115234,0.0405341,306.00010681152344,7.07077e-15C306.00010681152344,7.07077e-15,306.00010681152344,7.07077e-15,306.00010681152344,7.07077e-15Z" fill="url(#master_svg0_3_0618)" fill-opacity="1"/></g><g><ellipse cx="257.30519104003906" cy="97.10169219970703" rx="18.152542114257812" ry="18.152542114257812" fill="#FFFFFF" fill-opacity="1"/></g><g><ellipse cx="305.7119674682617" cy="97.10169219970703" rx="18.152542114257812" ry="18.152542114257812" fill="#FFFFFF" fill-opacity="1"/></g><g><ellipse cx="353.54248046875" cy="97.10169219970703" rx="18.152542114257812" ry="18.152542114257812" fill="#FFFFFF" fill-opacity="1"/></g><g transform="matrix(-1,0,0,1,816.0002136230469,0)"><g><path d="M510.00010681152344,7.07077e-15C489.82640681152344,-1.41415e-14,470.10580681152345,5.98219,453.33200681152346,17.1901C436.55820681152346,28.398,423.48460681152346,44.3282,415.7644368115234,62.9663C408.0442999115234,81.6043,406.02436681152346,102.113,409.96005681152343,121.899C413.89574681152345,141.685,423.61030681152346,159.86,437.8752068115234,174.125C452.14020681152346,188.39,470.31490681152343,198.104,490.10090681152343,202.04C509.88710681152344,205.976,530.3961068115234,203.956,549.0341068115234,196.236C567.6721068115235,188.516,583.6021068115234,175.442,594.8101068115234,158.668C606.0181068115235,141.894,612.0001068115234,122.174,612.0001068115234,102C611.9591068115235,74.9604,601.2001068115235,49.0398,582.0801068115235,29.9199C562.9601068115235,10.7999,537.0401068115234,0.0405341,510.00010681152344,7.07077e-15C510.00010681152344,7.07077e-15,510.00010681152344,7.07077e-15,510.00010681152344,7.07077e-15Z" fill="url(#master_svg1_3_2046)" fill-opacity="1"/></g></g><g><g><path d="M306.0000762939453,7.07077e-15C285.8263762939453,-1.41415e-14,266.1057762939453,5.98219,249.3319762939453,17.1901C232.5581762939453,28.398,219.4845762939453,44.3282,211.7644062939453,62.9663C204.0442693939453,81.6043,202.0243362939453,102.113,205.9600262939453,121.899C209.89571629394533,141.685,219.6102762939453,159.86,233.87517629394532,174.125C248.1401762939453,188.39,266.3148762939453,198.104,286.1008762939453,202.04C305.8870762939453,205.976,326.3960762939453,203.956,345.0340762939453,196.236C363.67207629394534,188.516,379.6020762939453,175.442,390.8100762939453,158.668C402.01807629394534,141.894,408.0000762939453,122.174,408.0000762939453,102C407.9590762939453,74.9604,397.2000762939453,49.0398,378.08007629394535,29.9199C358.96007629394535,10.7999,333.0400762939453,0.0405341,306.0000762939453,7.07077e-15C306.0000762939453,7.07077e-15,306.0000762939453,7.07077e-15,306.0000762939453,7.07077e-15Z" fill="url(#master_svg2_3_0618)" fill-opacity="1"/></g><g><ellipse cx="257.30516052246094" cy="97.10169219970703" rx="18.152542114257812" ry="18.152542114257812" fill="#FFFFFF" fill-opacity="1"/></g><g><ellipse cx="305.7119369506836" cy="97.10169219970703" rx="18.152542114257812" ry="18.152542114257812" fill="#FFFFFF" fill-opacity="1"/></g><g><ellipse cx="353.5424499511719" cy="97.10169219970703" rx="18.152542114257812" ry="18.152542114257812" fill="#FFFFFF" fill-opacity="1"/></g><g transform="matrix(-1,0,0,1,816.0001525878906,0)"><g><path d="M510.0000762939453,7.07077e-15C489.8263762939453,-1.41415e-14,470.1057762939453,5.98219,453.33197629394533,17.1901C436.55817629394534,28.398,423.48457629394534,44.3282,415.7644062939453,62.9663C408.0442693939453,81.6043,406.02433629394534,102.113,409.9600262939453,121.899C413.8957162939453,141.685,423.61027629394533,159.86,437.8751762939453,174.125C452.14017629394533,188.39,470.3148762939453,198.104,490.1008762939453,202.04C509.8870762939453,205.976,530.3960762939453,203.956,549.0340762939453,196.236C567.6720762939453,188.516,583.6020762939453,175.442,594.8100762939453,158.668C606.0180762939453,141.894,612.0000762939453,122.174,612.0000762939453,102C611.9590762939454,74.9604,601.2000762939454,49.0398,582.0800762939454,29.9199C562.9600762939453,10.7999,537.0400762939453,0.0405341,510.0000762939453,7.07077e-15C510.0000762939453,7.07077e-15,510.0000762939453,7.07077e-15,510.0000762939453,7.07077e-15Z" fill="url(#master_svg3_3_0609)" fill-opacity="1"/></g><g filter="url(#master_svg4_9_6625)"><g><path d="M575.7566049804688,61.9285658203125Q576.0376049804688,61.568935820312504,576.2876049804688,61.1872358203125Q576.5386049804688,60.8055458203125,576.7566049804688,60.4044058203125Q576.9746049804687,60.0032758203125,577.1586049804688,59.585455820312504Q577.3426049804688,59.1676358203125,577.4906049804688,58.7360058203125Q577.6396049804688,58.3043858203125,577.7526049804687,57.8619158203125Q577.8646049804688,57.419445820312504,577.9406049804687,56.9691858203125Q578.0156049804688,56.518925820312504,578.0536049804688,56.0639608203125Q578.0916049804688,55.6089978203125,578.0916049804688,55.1524658203125Q578.0916049804688,54.8824308203125,578.0776049804688,54.6127218203125Q578.0646049804687,54.3430118203125,578.0386049804688,54.0742758203125Q578.0116049804687,53.8055458203125,577.9726049804688,53.5384358203125Q577.9326049804688,53.2713158203125,577.8796049804688,53.0064758203125Q577.8276049804688,52.7416258203125,577.7616049804687,52.4796858203125Q577.6956049804687,52.2177458203125,577.6176049804687,51.9593358203125Q577.5396049804688,51.7009258203125,577.4486049804688,51.4466758203125Q577.3576049804688,51.1924258203125,577.2536049804687,50.9429458203125Q577.1506049804688,50.6934658203125,577.0346049804688,50.4493558203125Q576.9196049804688,50.2052558203125,576.7926049804687,49.9671058203125Q576.6646049804688,49.7289558203125,576.5266049804687,49.4973358203125Q576.3876049804687,49.2657158203125,576.2376049804687,49.0411958203125Q576.0876049804688,48.8166658203125,575.9266049804687,48.5997758203125Q575.7656049804688,48.3828758203125,575.5946049804687,48.1741358203125Q575.4226049804688,47.9653958203125,575.2416049804688,47.7653158203125Q575.0606049804687,47.5652358203125,574.8696049804687,47.3742958203125Q574.6786049804688,47.183345820312496,574.4786049804687,47.0020058203125Q574.2786049804688,46.820655820312496,574.0696049804687,46.6493558203125Q573.8606049804688,46.4780458203125,573.6436049804688,46.3171858203125Q573.4266049804687,46.1563258203125,573.2026049804688,46.0063058203125Q572.9776049804688,45.856275820312504,572.7466049804688,45.7174558203125Q572.5146049804688,45.578625820312496,572.2766049804687,45.4513358203125Q572.0386049804688,45.3240358203125,571.7946049804688,45.2085858203125Q571.5506049804687,45.0931658203125,571.3006049804687,44.9897658203125Q571.0516049804687,44.8864658203125,570.7966049804687,44.7954658203125Q570.5426049804687,44.7044658203125,570.2846049804688,44.6261658203125Q570.0256049804688,44.5477658203125,569.7636049804687,44.4821658203125Q569.5016049804688,44.416465820312496,569.2376049804687,44.3638658203125Q568.9726049804688,44.311165820312496,568.7056049804687,44.2715658203125Q568.4386049804688,44.2318658203125,568.1696049804688,44.2054658203125Q567.9006049804688,44.1789658203125,567.6306049804688,44.1657658203125Q567.3616049804688,44.1524658203125,567.0916049804688,44.1524658203125Q566.7796049804688,44.1524658203125,566.4676049804688,44.1701658203125Q566.1566049804687,44.1877658203125,565.8466049804688,44.2230658203125Q565.5366049804687,44.2583658203125,565.2296049804687,44.311165820312496Q564.9216049804687,44.3639658203125,564.6176049804687,44.4341658203125Q564.3136049804688,44.5042658203125,564.0146049804688,44.5914658203125Q563.7146049804687,44.6787658203125,563.4206049804687,44.7827658203125Q563.1266049804688,44.8868658203125,562.8396049804687,45.007465820312504Q562.5516049804687,45.1279658203125,562.2716049804687,45.2646658203125Q561.9906049804688,45.4013358203125,561.7186049804687,45.5536758203125Q561.4466049804687,45.7060158203125,561.1836049804688,45.8735358203125Q560.9206049804687,46.0410458203125,560.6676049804687,46.2232058203125Q560.4136049804688,46.4053558203125,560.1716049804687,46.6015658203125Q559.9286049804688,46.7977858203125,559.6976049804688,47.0074158203125Q559.4676049804688,47.2170558203125,559.2486049804687,47.4394358203125Q559.0296049804688,47.6618258203125,558.8236049804688,47.8962458203125Q558.6186049804687,48.1306658203125,558.4256049804687,48.3763658203125L491.52150498046876,133.9324658203125L459.93153498046877,108.1926658203125L459.93098498046874,108.19216582031251Q459.56635498046876,107.89506582031251,459.17771498046875,107.6301658203125Q458.78906498046877,107.3652658203125,458.37921498046876,107.1345658203125Q457.96937498046873,106.90386582031249,457.5413349804688,106.7088658203125Q457.11329498046877,106.5139658203125,456.67017498046874,106.3562658203125Q456.2270549804687,106.1986658203125,455.77209498046875,106.0793658203125Q455.3171349804687,105.96006582031251,454.8536549804688,105.8800658203125Q454.39017498046877,105.8000658203125,453.9215569804687,105.7599658203125Q453.45293898046873,105.7197658203125,452.98260498046875,105.7197658203125Q452.71256998046874,105.7197658203125,452.44286098046877,105.7330658203125Q452.17315098046873,105.7462658203125,451.90441498046874,105.7727658203125Q451.63568498046874,105.7992658203125,451.36857498046874,105.83886582031249Q451.10145498046876,105.8784658203125,450.83661498046877,105.9311658203125Q450.57176498046874,105.9838658203125,450.30982498046876,106.04946582031249Q450.0478849804687,106.11506582031251,449.78947498046875,106.1934658203125Q449.5310649804687,106.2718658203125,449.27681498046877,106.36276582031249Q449.02256498046876,106.4537658203125,448.77308498046875,106.55716582031249Q448.52360498046875,106.66046582031251,448.27949498046877,106.7758658203125Q448.03539498046877,106.8913658203125,447.79724498046875,107.01866582031249Q447.5590949804687,107.1459658203125,447.32747498046876,107.2847658203125Q447.09585498046874,107.42356582031249,446.87133498046876,107.5736658203125Q446.64680498046874,107.7236658203125,446.42991498046877,107.8844658203125Q446.21301498046876,108.0453658203125,446.0042749804687,108.2166658203125Q445.79553498046874,108.3879658203125,445.59545498046873,108.5693658203125Q445.3953749804688,108.75066582031249,445.20443498046876,108.9416658203125Q445.0134849804688,109.1325658203125,444.83214498046874,109.3326658203125Q444.65079498046873,109.5327658203125,444.47949498046876,109.7414658203125Q444.30818498046875,109.95016582031249,444.14732498046874,110.1670658203125Q443.9864649804687,110.3839658203125,443.83644498046874,110.6084658203125Q443.6864149804687,110.8330658203125,443.5475949804688,111.0646658203125Q443.40876498046873,111.2962658203125,443.2814749804688,111.5344658203125Q443.1541749804687,111.77256582031251,443.03872498046877,112.0166658203125Q442.92330498046874,112.2607658203125,442.8199049804688,112.5102658203125Q442.71660498046873,112.75976582031251,442.6256049804688,113.0139658203125Q442.53460498046877,113.26826582031251,442.45630498046876,113.5266658203125Q442.37790498046877,113.7850658203125,442.31230498046875,114.0469658203125Q442.24660498046876,114.3089658203125,442.1940049804688,114.5737658203125Q442.14130498046876,114.8386658203125,442.10170498046875,115.1057658203125Q442.06200498046877,115.3728658203125,442.03560498046875,115.64156582031251Q442.00910498046875,115.9103658203125,441.99590498046877,116.1800658203125Q441.98260498046875,116.4497658203125,441.98260498046875,116.7197658203125Q441.98260498046875,117.33026582031249,442.0502049804688,117.9370658203125Q442.1177049804688,118.5437658203125,442.25200498046877,119.13936582031249Q442.38630498046876,119.7348658203125,442.58560498046876,120.3119658203125Q442.7850049804687,120.8889658203125,443.0470049804687,121.4403658203125Q443.3090049804687,121.9917658203125,443.63040498046877,122.5108658203125Q443.95180498046875,123.0298658203125,444.32867498046875,123.5101658203125Q444.70554498046874,123.9904658203125,445.13324498046876,124.4261658203125Q445.5609449804688,124.8617658203125,446.03423498046874,125.2473658203125L486.32500498046875,158.0764658203125Q486.41040498046874,158.1464658203125,486.49730498046875,158.2144658203125Q486.71000498046874,158.3804658203125,486.93060498046873,158.53646582031251Q487.1512049804687,158.69246582031252,487.3792049804687,158.8364658203125Q487.60720498046874,158.9814658203125,487.84200498046874,159.1144658203125Q488.0769049804687,159.2484658203125,488.31790498046877,159.36946582031248Q488.5590049804687,159.4914658203125,488.80580498046874,159.6014658203125Q489.05250498046877,159.7104658203125,489.30440498046875,159.8084658203125Q489.55620498046875,159.9054658203125,489.81260498046873,159.9904658203125Q490.06890498046874,160.0754658203125,490.32910498046874,160.1474658203125Q490.58920498046876,160.22046582031248,490.85270498046873,160.2794658203125Q491.1161049804688,160.3384658203125,491.38210498046874,160.3854658203125Q491.64810498046876,160.4314658203125,491.91610498046873,160.4654658203125Q492.1840049804687,160.4984658203125,492.4533049804688,160.51846582031249Q492.72260498046876,160.5384658203125,492.99260498046874,160.5454658203125Q493.26250498046875,160.5524658203125,493.53250498046873,160.5464658203125Q493.80240498046874,160.5394658203125,494.0717049804688,160.5204658203125Q494.34110498046874,160.5004658203125,494.60910498046877,160.4674658203125Q494.87710498046874,160.43446582031248,495.14330498046877,160.3894658203125Q495.40940498046876,160.3434658203125,495.67290498046873,160.2844658203125Q495.93640498046875,160.22546582031248,496.1967049804688,160.1534658203125Q496.4571049804687,160.0814658203125,496.71360498046874,159.9974658203125Q496.97000498046873,159.9124658203125,497.22210498046877,159.8154658203125Q497.4741049804687,159.7184658203125,497.72110498046874,159.6094658203125Q497.96810498046875,159.5004658203125,498.2094049804688,159.3794658203125Q498.45070498046874,159.2584658203125,498.68580498046873,159.1254658203125Q498.9209049804688,158.9924658203125,499.14920498046877,158.8484658203125Q499.3774049804687,158.70446582031252,499.59840498046873,158.54846582031252Q499.81930498046876,158.39346582031249,500.03240498046875,158.2274658203125Q500.2454049804687,158.0614658203125,500.45000498046875,157.8854658203125Q500.65470498046875,157.70946582031252,500.85040498046874,157.52346582031248Q501.04620498046876,157.3374658203125,501.23260498046875,157.1414658203125Q501.41900498046874,156.94646582031248,501.59560498046875,156.7424658203125Q501.77220498046876,156.5374658203125,501.93850498046874,156.3254658203125L575.7566049804688,61.9285658203125L575.7566049804688,61.9285658203125Z" fill-rule="evenodd" fill="#FFFFFF" fill-opacity="1"/></g></g></g><g transform="matrix(-1,0,0,1,816.0001525878906,0)"><g><path d="M510.0000762939453,5.9332e-7C489.8263762939453,5.9332e-7,470.1057762939453,5.98219,453.33197629394533,17.1901C436.55817629394534,28.398,423.48457629394534,44.3282,415.7644062939453,62.9663C408.0442709939453,81.6043,406.02433629394534,102.113,409.9600262939453,121.899C413.8957162939453,141.685,423.61027629394533,159.86,437.8751762939453,174.125C452.14017629394533,188.39,470.3148762939453,198.104,490.1008762939453,202.04C509.8870762939453,205.976,530.3960762939453,203.956,549.0340762939453,196.236C567.6720762939453,188.516,583.6020762939453,175.442,594.8100762939453,158.668C606.0180762939453,141.894,612.0000762939453,122.174,612.0000762939453,102C612.0010762939453,88.6047,609.3640762939453,75.3404,604.2390762939453,62.9646C599.1130762939454,50.5887,591.6000762939453,39.3437,582.1280762939452,29.8719C572.6560762939453,20.4,561.4110762939454,12.8868,549.0350762939453,7.76134C536.6600762939453,2.63588,523.3950762939453,-0.00144422,510.0000762939453,5.9332e-7C510.0000762939453,5.9332e-7,510.0000762939453,5.9332e-7,510.0000762939453,5.9332e-7Z" fill="url(#master_svg5_3_2663)" fill-opacity="1"/></g><g><path d="M558.1707644042968,139.85301032714844C559.4247644042969,141.08821032714843,560.1387644042969,142.76931032714845,560.1577644042968,144.52931032714844C560.1767644042968,146.28941032714843,559.4977644042968,147.98531032714845,558.2707644042969,149.24721032714842C558.2707644042969,149.24721032714842,558.2707644042969,149.24721032714842,558.2707644042969,149.24721032714842C557.0347644042969,150.50121032714844,555.3523644042968,151.21521032714844,553.5913644042969,151.23421032714845C551.8303644042969,151.25321032714845,550.1333644042969,150.57421032714842,548.8707644042969,149.34721032714845C548.8707644042969,149.34721032714845,508.17076440429685,109.47301032714844,508.17076440429685,109.47301032714844C508.17076440429685,109.47301032714844,467.47076440429686,149.33021032714845,467.47076440429686,149.33021032714845C466.8479644042969,149.94221032714844,466.1103444042969,150.42621032714845,465.30021440429687,150.75221032714842C464.49008440429685,151.07921032714842,463.62341440429685,151.24221032714843,462.74998440429687,151.23321032714844C461.8765544042969,151.22421032714846,461.0135544042969,151.04221032714844,460.2105544042969,150.69821032714844C459.4075544042969,150.35421032714845,458.68037440429686,149.85521032714843,458.0707644042969,149.23021032714843C458.0707644042969,149.23021032714843,458.0707644042969,149.23021032714843,458.0707644042969,149.23021032714843C457.4575644042969,148.60761032714845,456.9735194042969,147.87011032714844,456.6464734042969,147.05991032714843C456.3194284042969,146.24971032714842,456.15584509429686,145.38281032714843,456.1651393452969,144.50921032714842C456.1744335942969,143.63551032714844,456.3564214042969,142.77231032714843,456.7006294042969,141.96931032714843C457.04483740429686,141.16621032714843,457.5444644042969,140.43921032714843,458.17076440429685,139.83001032714844C458.17076440429685,139.83001032714844,498.6907644042969,100.18301032714844,498.6907644042969,100.18301032714844C498.6907644042969,100.18301032714844,458.17076440429685,60.513010327148436,458.17076440429685,60.513010327148436C456.91688740429686,59.27771032714844,456.2026150042969,57.59663032714844,456.1838795042969,55.836610327148435C456.16514392729687,54.07659032714844,456.84346640429686,52.380640327148434,458.0707644042969,51.11899032714844C458.0707644042969,51.11899032714844,458.0707644042969,51.11899032714844,458.0707644042969,51.11899032714844C459.3070244042969,49.864747327148436,460.98915440429687,49.15032232714844,462.7501544042969,49.13158822414844C464.51115440429686,49.11285412714844,466.20806440429686,49.791331327148434,467.47076440429686,51.01899032714844C467.47076440429686,51.01899032714844,508.17076440429685,90.89301032714843,508.17076440429685,90.89301032714843C508.17076440429685,90.89301032714843,548.8707644042969,51.03599032714844,548.8707644042969,51.03599032714844C549.4935644042969,50.42352032714844,550.2311644042969,49.94011332714844,551.0412644042968,49.613520327148436C551.8514644042968,49.28692832714844,552.7180644042969,49.12358753714844,553.5915644042968,49.132879397148436C554.4649644042969,49.14217122714844,555.3279644042968,49.323912327148435,556.1309644042968,49.66766632714844C556.9337644042969,50.011420327148436,557.6607644042969,50.510410327148435,558.2707644042969,51.135990327148434C558.2707644042969,51.135990327148434,558.2707644042969,51.135990327148434,558.2707644042969,51.135990327148434C558.8827644042968,51.758260327148434,559.3667644042969,52.495390327148435,559.6927644042969,53.30503032714844C560.0197644042969,54.114660327148435,560.1827644042969,54.980840327148435,560.1737644042969,55.853780327148435C560.1637644042969,56.726720327148435,559.9827644042969,57.58922032714844,559.6387644042969,58.391720327148434C559.2947644042969,59.19421032714844,558.7957644042968,59.920910327148434,558.1707644042968,60.53001032714844C558.1707644042968,60.53001032714844,517.6517644042968,100.18301032714844,517.6517644042968,100.18301032714844C517.6517644042968,100.18301032714844,558.1707644042968,139.85301032714844,558.1707644042968,139.85301032714844Z" fill="#FFFFFF" fill-opacity="1"/></g></g></g></g></g></svg>