<svg xmlns="http://www.w3.org/2000/svg" xmlns:xlink="http://www.w3.org/1999/xlink" fill="none" version="1.1" width="33" height="33" viewBox="0 0 33 33"><defs><clipPath id="master_svg0_1_50"><rect x="0" y="0" width="33" height="33" rx="0"/></clipPath></defs><g><g><g clip-path="url(#master_svg0_1_50)"><g><path d="M23.3358154296875,31.5857L23.3358154296875,17.91429Q23.3358154296875,16.5,24.7501054296875,16.5Q26.1643854296875,16.5,26.1643854296875,17.91429L26.1643854296875,31.5857Q26.1643854296875,33,24.7501054296875,33Q23.3358154296875,33,23.3358154296875,31.5857Z" fill="#3388FF" fill-opacity="1"/></g><g><path d="M17.91429,23.33563232421875L31.5857,23.33563232421875Q33,23.33563232421875,33,24.74992232421875Q33,26.16420232421875,31.5857,26.16420232421875L17.91429,26.16420232421875Q16.5,26.16420232421875,16.5,24.74992232421875Q16.5,23.33563232421875,17.91429,23.33563232421875Z" fill="#3388FF" fill-opacity="1"/></g><g><path d="M16.5,33L7.07143,33L7.07143,31.5857C7.07143,30.8046,7.70463,30.1714,8.48571,30.1714L16.5,30.1714L16.5,33ZM33,2.35714C33,1.05533,31.9447,0,30.6429,0L2.35714,0C1.05533,-1.55188e-7,0,1.05533,0,2.35714L0,23.5714C0,24.8732,1.05533,25.9286,2.35714,25.9286L10.3714,25.9286C11.1525,25.9286,11.7857,25.2954,11.7857,24.5143C11.7857,23.7332,11.1525,23.1,10.3714,23.1L2.82857,23.1L2.82857,2.82857L30.1714,2.82857L30.1714,10.89C30.1714,11.6711,30.8046,12.3043,31.5857,12.3043C32.3668,12.3043,33,11.6711,33,10.89L33,2.35714Z" fill="#3388FF" fill-opacity="1"/></g><g><path d="M27.1072443359375,8.249962265625L27.1072443359375,9.687822265625C27.1260443359375,10.840472265625,26.3083443359375,11.837612265625001,25.1743443359375,12.044962265625C21.5029443359375,12.642762265624999,18.3582443359375,15.003462265625,16.7593443359375,18.362122265625C16.4768443359375,19.302422265624998,15.6411143359375,19.969222265625,14.6615143359375,20.035722265624997L8.2500843359375,20.035722265624997C6.9482743359375,20.035722265624997,5.8929443359375,18.980322265625,5.8929443359375,17.678522265625L5.8929443359375,8.249962265625C5.8929453194145,6.948152265625,6.9482743359375,5.892822265625,8.2500843359375,5.892822265625L24.7500443359375,5.892822265625C26.0519443359375,5.892821773887,27.1072443359375,6.948152265625,27.1072443359375,8.249962265625Z" fill="#3388FF" fill-opacity="1"/></g></g></g></g></svg>