<svg xmlns="http://www.w3.org/2000/svg" xmlns:xlink="http://www.w3.org/1999/xlink" fill="none" version="1.1" width="38" height="38" viewBox="0 0 38 38"><defs><clipPath id="master_svg0_1_57"><rect x="0" y="0" width="38" height="38" rx="0"/></clipPath></defs><g><g clip-path="url(#master_svg0_1_57)"><g><path d="M19,2.375C9.82656,2.375,2.375,9.82656,2.375,19C2.375,28.1734,9.82656,35.625,19,35.625C28.1734,35.625,35.625,28.1734,35.625,19C35.625,9.82656,28.1734,2.375,19,2.375ZM17.8125,7.125L20.1875,7.125L20.1875,21.375L17.8125,21.375L17.8125,7.125ZM19,30.875C12.4391,30.875,7.125,25.5609,7.125,19C7.125,14.1312,10.06406,9.94531,14.25,8.10469L14.25,10.77656C11.4,12.4094,9.5,15.4969,9.5,19C9.5,24.225,13.775,28.5,19,28.5C24.225,28.5,28.5,24.225,28.5,19C28.5,15.4969,26.6,12.4094,23.75,10.77656L23.75,8.10469C27.9359,9.94531,30.875,14.1312,30.875,19C30.875,25.5609,25.5609,30.875,19,30.875Z" fill="#3388FF" fill-opacity="1"/></g></g></g></svg>