<svg xmlns="http://www.w3.org/2000/svg" xmlns:xlink="http://www.w3.org/1999/xlink" fill="none" version="1.1" width="205" height="205" viewBox="0 0 205 205"><defs><linearGradient x1="0.5809999704360962" y1="0.9999999403953552" x2="0.3089999854564667" y2="0.26499998569488525" id="master_svg0_3_0609"><stop offset="0%" stop-color="#4CBF00" stop-opacity="1"/><stop offset="100%" stop-color="#7FE18F" stop-opacity="1"/></linearGradient><filter id="master_svg1_9_12623" filterUnits="objectBoundingBox" color-interpolation-filters="sRGB" x="-12" y="-9" width="138.66796875" height="118.859375"><feFlood flood-opacity="0" result="BackgroundImageFix"/><feColorMatrix in="SourceAlpha" type="matrix" values="0 0 0 0 0 0 0 0 0 0 0 0 0 0 0 0 0 0 127 0"/><feOffset dy="3" dx="0"/><feGaussianBlur stdDeviation="3"/><feColorMatrix type="matrix" values="0 0 0 0 0 0 0 0 0 0 0 0 0 0 0 0 0 0 0.16099999845027924 0"/><feBlend mode="normal" in2="BackgroundImageFix" result="effect1_dropShadow"/><feBlend mode="normal" in="SourceGraphic" in2="effect1_dropShadow" result="shape"/></filter></defs><g><g><path d="M102.5,7.10543e-15C82.2275,-1.42109e-14,62.4101,6.01152,45.5541,17.2744C28.6981,28.5372,15.5604,44.5455,7.80239,63.2749C0.0444098,82.0044,-1.98543,102.614,1.96956,122.497C5.92454,142.38,15.6867,160.644,30.0216,174.978C44.3565,189.313,62.6202,199.076,82.5033,203.03C102.386,206.985,122.996,204.956,141.725,197.198C160.455,189.44,176.463,176.302,187.726,159.446C198.989,142.59,205,122.773,205,102.5C204.959,75.3278,194.147,49.2802,174.934,30.0665C155.72,10.8529,129.672,0.0407328,102.5,7.10543e-15C102.5,7.10543e-15,102.5,7.10543e-15,102.5,7.10543e-15Z" fill="url(#master_svg0_3_0609)" fill-opacity="1"/></g><g filter="url(#master_svg1_9_12623)"><g><path d="M168.536125,62.1989515625Q168.817125,61.839321562500004,169.068125,61.4576315625Q169.318125,61.0759315625,169.536125,60.6747915625Q169.754125,60.2736615625,169.938125,59.855841562500004Q170.12212499999998,59.4380215625,170.27112499999998,59.0063915625Q170.42012499999998,58.5747715625,170.532125,58.1323015625Q170.645125,57.689831562500004,170.720125,57.2395715625Q170.79512499999998,56.789311562500004,170.833125,56.3343465625Q170.871125,55.8793835625,170.871125,55.4228515625Q170.871125,55.1528165625,170.858125,54.8831075625Q170.84412500000002,54.6133975625,170.818125,54.3446615625Q170.792125,54.0759315625,170.752125,53.8088215625Q170.71212500000001,53.5417015625,170.660125,53.2768615625Q170.607125,53.0120115625,170.541125,52.7500715625Q170.476125,52.4881315625,170.39712500000002,52.2297215625Q170.31912499999999,51.9713115625,170.228125,51.7170615625Q170.137125,51.4628115625,170.03412500000002,51.2133315625Q169.930125,50.9638515625,169.815125,50.7197415625Q169.69912499999998,50.4756415625,169.572125,50.2374915625Q169.44512500000002,49.9993415625,169.306125,49.7677215625Q169.167125,49.5361015625,169.017125,49.3115815625Q168.867125,49.0870515625,168.706125,48.8701615625Q168.54512499999998,48.6532615625,168.374125,48.4445215625Q168.203125,48.2357815625,168.02112499999998,48.0357015625Q167.840125,47.8356215625,167.649125,47.6446815625Q167.458125,47.453731562499996,167.258125,47.2723915625Q167.05812500000002,47.091041562499996,166.84912500000002,46.9197415625Q166.641125,46.7484315625,166.424125,46.5875715625Q166.20712500000002,46.4267115625,165.982125,46.2766915625Q165.758125,46.126661562500004,165.52612499999998,45.9878415625Q165.294125,45.849011562499996,165.056125,45.7217215625Q164.818125,45.5944215625,164.57412499999998,45.4789715625Q164.330125,45.3635515625,164.080125,45.2601515625Q163.831125,45.1568515625,163.577125,45.0658515625Q163.322125,44.9748515625,163.064125,44.8965515625Q162.806125,44.8181515625,162.544125,44.7525515625Q162.282125,44.686851562499996,162.017125,44.6342515625Q161.752125,44.581551562499996,161.48512499999998,44.5419515625Q161.218125,44.5022515625,160.94912499999998,44.4758515625Q160.680125,44.4493515625,160.411125,44.4361515625Q160.141125,44.4228515625,159.871125,44.4228515625Q159.559125,44.4228515625,159.24812500000002,44.4405515625Q158.936125,44.4581515625,158.626125,44.4934515625Q158.316125,44.5287515625,158.00912499999998,44.581551562499996Q157.702125,44.6343515625,157.398125,44.7045515625Q157.09412500000002,44.7746515625,156.794125,44.8618515625Q156.495125,44.9491515625,156.201125,45.0531515625Q155.907125,45.1572515625,155.619125,45.277851562500004Q155.331125,45.3983515625,155.051125,45.5350515625Q154.77112499999998,45.6717215625,154.499125,45.8240615625Q154.226125,45.9764015625,153.963125,46.1439115625Q153.700125,46.3114315625,153.447125,46.4935915625Q153.19412499999999,46.6757415625,152.951125,46.8719515625Q152.709125,47.0681715625,152.478125,47.2778015625Q152.24712499999998,47.4874415625,152.028125,47.7098215625Q151.809125,47.9322115625,151.604125,48.1666315625Q151.398125,48.4010515625,151.206125,48.6467515625L83.939525,134.6655515625L52.152055,108.7648515625L52.151505,108.7643515625Q51.786875,108.4672515625,51.398235,108.2023515625Q51.009585,107.9375515625,50.599735,107.7067515625Q50.189895,107.4760515625,49.761855,107.2810515625Q49.333815,107.08615156249999,48.890695,106.92855156249999Q48.447575,106.7708515625,47.992615,106.6515515625Q47.537655,106.5322515625,47.074175,106.45225156250001Q46.610695,106.3722515625,46.142077,106.3321515625Q45.673459,106.2919515625,45.203125,106.2919515625Q44.93309,106.2919515625,44.663381,106.30525156249999Q44.393671,106.3184515625,44.124935,106.3449515625Q43.856205,106.3714515625,43.589095,106.4110515625Q43.321975,106.4506515625,43.057135,106.5033515625Q42.792285,106.5560515625,42.530345,106.6216515625Q42.268405,106.6872515625,42.009995,106.7656515625Q41.751585,106.8440515625,41.497335,106.9350515625Q41.243085,107.0259515625,40.993605,107.1293515625Q40.744125,107.2326515625,40.500015,107.3481515625Q40.255915,107.4635515625,40.017765,107.5908515625Q39.779615,107.7181515625,39.547995,107.8569515625Q39.316375,107.9957515625,39.091855,108.1458515625Q38.867325,108.29585156249999,38.650435,108.4567515625Q38.433535,108.6175515625,38.224795,108.7888515625Q38.016055,108.9601515625,37.815975,109.1415515625Q37.615895,109.3228515625,37.424955,109.51385156250001Q37.234004999999996,109.70475156250001,37.052665,109.9048515625Q36.871314999999996,110.10495156249999,36.700015,110.3136515625Q36.528705,110.52245156250001,36.367845,110.7392515625Q36.206985,110.9561515625,36.056965,111.1807515625Q35.906935000000004,111.4052515625,35.768115,111.6368515625Q35.629284999999996,111.8684515625,35.501995,112.10665156249999Q35.374695,112.3447515625,35.259245,112.5888515625Q35.143825,112.8329515625,35.040425,113.0824515625Q34.937125,113.3319515625,34.846125,113.58615156249999Q34.755125,113.8404515625,34.676825,114.0988515625Q34.598425,114.3572515625,34.532825,114.6192515625Q34.467124999999996,114.88115156250001,34.414525,115.1459515625Q34.361824999999996,115.4108515625,34.322225,115.6779515625Q34.282525,115.9450515625,34.256125,116.2138515625Q34.229625,116.48255156249999,34.216425,116.75225156249999Q34.203125,117.02195156249999,34.203125,117.2919515625Q34.203125,117.9024515625,34.270725,118.5092515625Q34.338225,119.1159515625,34.472525,119.7115515625Q34.606825,120.3070515625,34.806125,120.8841515625Q35.005525,121.4611515625,35.267525,122.0125515625Q35.529525,122.5640515625,35.850925000000004,123.0830515625Q36.172325,123.6020515625,36.549195,124.0823515625Q36.926065,124.5626515625,37.353765,124.9983515625Q37.781465,125.4339515625,38.254745,125.8195515625L38.261025000000004,125.8247515625L78.743025,158.8098515625Q78.828525,158.8798515625,78.915325,158.9478515625Q79.12802500000001,159.1138515625,79.348625,159.26985156249998Q79.569225,159.4248515625,79.797225,159.5698515625Q80.025225,159.7148515625,80.260125,159.8478515625Q80.494925,159.9808515625,80.736025,160.1028515625Q80.977025,160.22485156250002,81.223825,160.3338515625Q81.470625,160.44385156250002,81.722425,160.5408515625Q81.974325,160.6388515625,82.230625,160.7238515625Q82.486925,160.8088515625,82.747125,160.8808515625Q83.00732500000001,160.9528515625,83.270725,161.0128515625Q83.534125,161.0718515625,83.80012500000001,161.1188515625Q84.066125,161.16485156250002,84.334125,161.1978515625Q84.602125,161.2318515625,84.871325,161.2518515625Q85.140625,161.2718515625,85.41062500000001,161.2788515625Q85.680525,161.2858515625,85.950525,161.2788515625Q86.220425,161.2728515625,86.489825,161.25285156249998Q86.759125,161.2338515625,87.027125,161.20085156250002Q87.295225,161.1678515625,87.561325,161.1218515625Q87.827425,161.07585156250002,88.090925,161.0168515625Q88.35442499999999,160.9588515625,88.614825,160.8868515625Q88.875125,160.8148515625,89.131625,160.7308515625Q89.388125,160.6458515625,89.640125,160.5488515625Q89.892125,160.4518515625,90.139125,160.34285156250002Q90.38612499999999,160.2338515625,90.627425,160.1128515625Q90.868725,159.99185156250002,91.103825,159.8588515625Q91.338925,159.7258515625,91.56722500000001,159.5818515625Q91.795525,159.4368515625,92.016425,159.28185156249998Q92.237325,159.1268515625,92.450425,158.9608515625Q92.66342499999999,158.7948515625,92.86812499999999,158.6188515625Q93.07272499999999,158.44285156249998,93.268525,158.2568515625Q93.464225,158.0708515625,93.65062499999999,157.8748515625Q93.837025,157.6798515625,94.01362499999999,157.47485156250002Q94.190225,157.2708515625,94.356525,157.0578515625L168.536125,62.1989515625L168.536125,62.1989515625Z" fill-rule="evenodd" fill="#FFFFFF" fill-opacity="1"/></g></g></g></svg>