<svg xmlns="http://www.w3.org/2000/svg" xmlns:xlink="http://www.w3.org/1999/xlink" fill="none" version="1.1" width="73" height="73" viewBox="0 0 73 73"><defs><filter id="master_svg0_5_3323" filterUnits="objectBoundingBox" color-interpolation-filters="sRGB" x="-24" y="-20" width="85" height="85"><feFlood flood-opacity="0" result="BackgroundImageFix"/><feColorMatrix in="SourceAlpha" type="matrix" values="0 0 0 0 0 0 0 0 0 0 0 0 0 0 0 0 0 0 127 0"/><feOffset dy="4" dx="0"/><feGaussianBlur stdDeviation="6"/><feColorMatrix type="matrix" values="0 0 0 0 0.8509804010391235 0 0 0 0 0.1568627506494522 0 0 0 0 0.1568627506494522 0 0 0 0.45899999141693115 0"/><feBlend mode="normal" in2="BackgroundImageFix" result="effect1_dropShadow"/><feBlend mode="normal" in="SourceGraphic" in2="effect1_dropShadow" result="shape"/></filter><linearGradient x1="0.5" y1="0" x2="0.5" y2="1" id="master_svg1_1_1315"><stop offset="0%" stop-color="#FFDCDC" stop-opacity="1"/><stop offset="100%" stop-color="#FFD2D2" stop-opacity="1"/></linearGradient></defs><g><g filter="url(#master_svg0_5_3323)"><g><path d="M54.9998779296875,32.5Q54.9998779296875,32.9541,54.9775779296875,33.4078Q54.9552779296875,33.8614,54.9107779296875,34.3133Q54.8662779296875,34.765299999999996,54.7996779296875,35.2145Q54.7329779296875,35.6637,54.6443779296875,36.1092Q54.5557779296875,36.5546,54.4454779296875,36.9951Q54.3350779296875,37.4357,54.2032779296875,37.8703Q54.0714779296875,38.3049,53.9184779296875,38.7325Q53.7654779296875,39.1601,53.5916779296875,39.5796Q53.4178779296875,39.9992,53.2236779296875,40.409800000000004Q53.0294779296875,40.8203,52.8153779296875,41.2208Q52.6013779296875,41.6214,52.3678779296875,42.0109Q52.1343779296875,42.400400000000005,51.8820779296875,42.778Q51.6297779296875,43.155699999999996,51.3591779296875,43.520399999999995Q51.0886779296875,43.8852,50.8005779296875,44.2363Q50.5124779296875,44.5873,50.2074779296875,44.9238Q49.9024779296875,45.2603,49.5813779296875,45.5815Q49.2601779296875,45.9026,48.9236779296875,46.2076Q48.5871779296875,46.5126,48.2361779296875,46.8007Q47.8850779296875,47.0888,47.520277929687495,47.3593Q47.155577929687496,47.6299,46.7778779296875,47.8822Q46.400277929687505,48.1345,46.0107779296875,48.368Q45.6212779296875,48.6015,45.2206779296875,48.8155Q44.8201779296875,49.0296,44.409677929687504,49.2238Q43.9990779296875,49.418,43.5794779296875,49.5918Q43.1599779296875,49.7656,42.7323779296875,49.9186Q42.3047779296875,50.0716,41.8701779296875,50.2034Q41.4355779296875,50.3352,40.9949779296875,50.4456Q40.5544779296875,50.5559,40.1090779296875,50.6445Q39.6635779296875,50.7331,39.2143779296875,50.7998Q38.765177929687496,50.8664,38.3131779296875,50.9109Q37.8612779296875,50.9554,37.4076779296875,50.9777Q36.9539779296875,51,36.4998779296875,51Q36.0457779296875,51,35.5920779296875,50.9777Q35.1384779296875,50.9554,34.6865779296875,50.9109Q34.234577929687504,50.8664,33.7853779296875,50.7998Q33.3361779296875,50.7331,32.8906779296875,50.6445Q32.4452779296875,50.5559,32.0047779296875,50.4456Q31.5641779296875,50.3352,31.1295779296875,50.2034Q30.6949779296875,50.0716,30.2673779296875,49.9186Q29.8397779296875,49.7656,29.4202779296875,49.5918Q29.000677929687498,49.418,28.5900779296875,49.2238Q28.1795779296875,49.0296,27.779037929687497,48.8155Q27.3785179296875,48.6015,26.9889779296875,48.368Q26.5994379296875,48.1345,26.2218279296875,47.8822Q25.8442179296875,47.6299,25.4794379296875,47.3593Q25.1146679296875,47.0888,24.7635979296875,46.8007Q24.4125379296875,46.5126,24.0760379296875,46.2076Q23.7395379296875,45.9026,23.4183979296875,45.5815Q23.0972679296875,45.2603,22.7922779296875,44.9238Q22.4872979296875,44.5873,22.1991879296875,44.2363Q21.9110779296875,43.8852,21.6405379296875,43.520399999999995Q21.3699979296875,43.155699999999996,21.1176879296875,42.778Q20.8653779296875,42.400400000000005,20.6318979296875,42.0109Q20.3984179296875,41.6214,20.1843379296875,41.2208Q19.9702479296875,40.8203,19.7760779296875,40.409800000000004Q19.5818979296875,39.9992,19.4081079296875,39.5796Q19.2343079296875,39.1601,19.0813079296875,38.7325Q18.9283139296875,38.3049,18.7964819296875,37.8703Q18.664648929687502,37.4357,18.5542999296875,36.9951Q18.4439499296875,36.5546,18.3553499296875,36.1092Q18.2667499296875,35.6637,18.2001129296875,35.2145Q18.1334749296875,34.765299999999996,18.0889604296875,34.3133Q18.0444460296875,33.8614,18.0221620296875,33.4078Q17.9998779296875,32.9541,17.9998779296875,32.5Q17.9998779296875,32.0459,18.0221620296875,31.5922Q18.0444460296875,31.1386,18.0889604296875,30.6867Q18.1334749296875,30.2347,18.2001129296875,29.7855Q18.2667499296875,29.3363,18.3553499296875,28.8908Q18.4439499296875,28.4454,18.5542999296875,28.0049Q18.664648929687502,27.5643,18.7964819296875,27.1297Q18.9283139296875,26.6951,19.0813079296875,26.2675Q19.2343079296875,25.8399,19.4081079296875,25.4204Q19.5818979296875,25.000799999999998,19.7760779296875,24.5902Q19.9702479296875,24.1797,20.1843379296875,23.779159999999997Q20.3984179296875,23.37864,20.6318979296875,22.9891Q20.8653779296875,22.59956,21.1176879296875,22.22195Q21.3699979296875,21.84434,21.6405379296875,21.47956Q21.9110779296875,21.11479,22.1991879296875,20.76372Q22.4872979296875,20.41266,22.7922779296875,20.07616Q23.0972679296875,19.73966,23.4183979296875,19.41852Q23.7395379296875,19.09739,24.0760379296875,18.7924Q24.4125379296875,18.48742,24.7635979296875,18.19931Q25.1146679296875,17.9112,25.4794379296875,17.64066Q25.8442179296875,17.37012,26.2218279296875,17.11781Q26.5994379296875,16.8655,26.9889779296875,16.63202Q27.3785179296875,16.39854,27.779037929687497,16.18446Q28.1795779296875,15.970369999999999,28.5900779296875,15.7762Q29.000677929687498,15.58202,29.4202779296875,15.40823Q29.8397779296875,15.23443,30.2673779296875,15.08143Q30.6949779296875,14.928436,31.1295779296875,14.796604Q31.5641779296875,14.664771,32.0047779296875,14.554422Q32.4452779296875,14.444072,32.8906779296875,14.355472Q33.3361779296875,14.266872,33.7853779296875,14.200235Q34.234577929687504,14.133597,34.6865779296875,14.0890825Q35.1384779296875,14.0445681,35.5920779296875,14.0222841Q36.0457779296875,14,36.4998779296875,14Q36.9539779296875,14,37.4076779296875,14.0222841Q37.8612779296875,14.0445681,38.3131779296875,14.0890825Q38.765177929687496,14.133597,39.2143779296875,14.200235Q39.6635779296875,14.266872,40.1090779296875,14.355472Q40.5544779296875,14.444072,40.9949779296875,14.554422Q41.4355779296875,14.664771,41.8701779296875,14.796604Q42.3047779296875,14.928436,42.7323779296875,15.08143Q43.1599779296875,15.23443,43.5794779296875,15.40823Q43.9990779296875,15.58202,44.409677929687504,15.7762Q44.8201779296875,15.970369999999999,45.2206779296875,16.18446Q45.6212779296875,16.39854,46.0107779296875,16.63202Q46.400277929687505,16.8655,46.7778779296875,17.11781Q47.155577929687496,17.37012,47.520277929687495,17.64066Q47.8850779296875,17.9112,48.2361779296875,18.19931Q48.5871779296875,18.48742,48.9236779296875,18.7924Q49.2601779296875,19.09739,49.5813779296875,19.41852Q49.9024779296875,19.73966,50.2074779296875,20.07616Q50.5124779296875,20.41266,50.8005779296875,20.76372Q51.0886779296875,21.11479,51.3591779296875,21.47956Q51.6297779296875,21.84434,51.8820779296875,22.22195Q52.1343779296875,22.59956,52.3678779296875,22.9891Q52.6013779296875,23.37864,52.8153779296875,23.779159999999997Q53.0294779296875,24.1797,53.2236779296875,24.5902Q53.4178779296875,25.000799999999998,53.5916779296875,25.4204Q53.7654779296875,25.8399,53.9184779296875,26.2675Q54.0714779296875,26.6951,54.2032779296875,27.1297Q54.3350779296875,27.5643,54.4454779296875,28.0049Q54.5557779296875,28.4454,54.6443779296875,28.8908Q54.7329779296875,29.3363,54.7996779296875,29.7855Q54.8662779296875,30.2347,54.9107779296875,30.6867Q54.9552779296875,31.1386,54.9775779296875,31.5922Q54.9998779296875,32.0459,54.9998779296875,32.5Z" fill="url(#master_svg1_1_1315)" fill-opacity="1"/></g></g><g><path d="M36.29981539726258,12.000000105753564C32.34501539726257,12.003954878653564,28.480215397262572,13.180297588653564,25.193875397262573,15.380327588653564C21.907525397262575,17.580357588653563,19.347185397262574,20.705307588653564,17.836495397262574,24.360177588653563C16.325813177262575,28.015077588653565,15.932598397262574,32.03577758865356,16.706560397262574,35.91407758865357C17.480525397262575,39.792377588653565,19.386915397262573,43.35417758865356,22.184755397262574,46.149177588653565C24.982605397262574,48.94427758865356,28.546315397262575,50.84707758865356,32.42541539726257,51.61717758865356C36.304415397262574,52.38727758865357,40.32471539726257,51.989977588653566,43.97811539726257,50.47567758865357C47.63141539726257,48.96137758865356,50.75381539726257,46.397877588653564,52.950615397262574,43.10927758865357C55.147315397262574,39.82077758865356,56.31981539726257,35.95477758865356,56.31981539726257,31.999977588653564C56.321115397262574,29.371477588653566,55.804015397262575,26.768577588653564,54.798215397262574,24.340177588653564C53.79231539726257,21.911737588653565,52.31741539726257,19.705547588653566,50.45781539726257,17.847847588653565C48.598315397262574,15.990157588653565,46.39061539726257,14.517437588653564,43.96121539726258,13.513987588653565C41.53181539726258,12.510531588653564,38.92831539726257,11.996055068653565,36.29981539726258,12.000000105753564C36.29981539726258,12.000000105753564,36.29981539726258,12.000000105753564,36.29981539726258,12.000000105753564ZM36.31981539726257,47.999977588653564C33.15531539726257,47.999977588653564,30.061915397262574,47.06157758865356,27.430715397262574,45.303477588653564C24.799515397262574,43.545377588653565,22.748755397262574,41.04657758865356,21.537755397262572,38.12297758865357C20.326745397262574,35.199277588653565,20.009895397262575,31.982277588653563,20.627255397262573,28.878577588653563C21.244625397262574,25.774877588653567,22.768475397262574,22.923977588653564,25.006115397262572,20.686287588653563C27.243715397262573,18.448647588653564,30.094715397262576,16.924797588653565,33.19841539726257,16.307437588653563C36.30211539726257,15.690067588653564,39.519115397262574,16.006927588653564,42.442715397262575,17.217927588653566C45.36641539726257,18.428927588653565,47.865215397262574,20.479687588653565,49.62331539726257,23.110877588653565C51.38141539726257,25.742077588653565,52.31981539726257,28.835477588653564,52.31981539726257,31.999977588653564C52.31981539726257,36.24347758865356,50.634115397262576,40.31317758865356,47.63351539726257,43.31367758865356C44.63291539726257,46.31427758865357,40.56331539726257,47.999977588653564,36.31981539726257,47.999977588653564C36.31981539726257,47.999977588653564,36.31981539726257,47.999977588653564,36.31981539726257,47.999977588653564Z" fill="#F52F2F" fill-opacity="1"/></g><g></g><g><path d="M37.31982421875,22C37.31982421875,22,34.31982421875,22,34.31982421875,22C34.31982421875,22,34.31982421875,34,34.31982421875,34C34.31982421875,34,44.81982421875,40.3,44.81982421875,40.3C44.81982421875,40.3,46.31982421875,37.84,46.31982421875,37.84C46.31982421875,37.84,37.31982421875,32.5,37.31982421875,32.5C37.31982421875,32.5,37.31982421875,22,37.31982421875,22Z" fill="#F52F2F" fill-opacity="1"/></g></g></svg>